<svg width="24" height="25" viewBox="0 0 24 25" fill="none" xmlns="http://www.w3.org/2000/svg">
<g clip-path="url(#clip0_1099_688)">
<path d="M23.2685 1.40362C22.972 1.10582 22.605 0.887928 22.2016 0.770249C21.7982 0.65257 21.3716 0.638937 20.9615 0.730621C18.374 1.51101 16.0271 2.9355 14.1405 4.87062L5.92248 13.0926C4.59629 12.4184 3.17757 11.9442 1.71248 11.6856C1.32088 11.6332 0.924425 11.7375 0.609225 11.9757C0.294024 12.2139 0.0855323 12.5668 0.0290315 12.9579C-0.0274693 13.3489 0.072584 13.7464 0.307461 14.0641C0.542338 14.3818 0.893069 14.594 1.28348 14.6546C2.95708 14.9721 4.54639 15.6341 5.95048 16.5986L3.00048 19.5496L2.56148 19.1096C2.28009 18.8282 1.89843 18.6701 1.50048 18.6701C1.10253 18.6701 0.720875 18.8282 0.439481 19.1096C0.158086 19.391 5.92995e-09 19.7727 0 20.1706C-5.92995e-09 20.5686 0.158086 20.9502 0.439481 21.2316L3.43948 24.2316C3.72088 24.513 4.10253 24.6711 4.50048 24.6711C4.69753 24.6711 4.89264 24.6323 5.07469 24.5569C5.25674 24.4815 5.42215 24.371 5.56148 24.2316C5.70081 24.0923 5.81134 23.9269 5.88674 23.7448C5.96215 23.5628 6.00096 23.3677 6.00096 23.1706C6.00096 22.9736 5.96215 22.7785 5.88674 22.5964C5.81134 22.4144 5.70081 22.249 5.56148 22.1096L5.12148 21.6706L8.07148 18.7196C9.03639 20.1236 9.69875 21.7129 10.0165 23.3866C10.0684 23.7432 10.2469 24.0692 10.5194 24.305C10.7919 24.5407 11.1401 24.6705 11.5005 24.6706C11.5721 24.6706 11.6436 24.6656 11.7145 24.6556C11.9098 24.6278 12.0977 24.5617 12.2674 24.4612C12.4372 24.3607 12.5854 24.2276 12.7036 24.0697C12.8219 23.9118 12.9078 23.7321 12.9565 23.5409C13.0052 23.3498 13.0158 23.1509 12.9875 22.9556C12.7289 21.4905 12.2547 20.0718 11.5805 18.7456L19.8005 10.5296C21.6817 8.60041 23.0989 6.2681 23.9445 3.70962C24.0354 3.29943 24.0211 2.8729 23.9029 2.46972C23.7847 2.06653 23.5665 1.69979 23.2685 1.40362ZM17.6765 8.40862L9.90048 16.1846C9.68848 15.9326 9.46848 15.6846 9.22748 15.4426C8.98648 15.2006 8.73848 14.9816 8.48648 14.7706L16.2615 6.99462C17.5156 5.74328 18.9967 4.74243 20.6255 4.04562C19.9284 5.674 18.9276 7.15472 17.6765 8.40862Z" fill="#292D29"/>
</g>
<defs>
<clipPath id="clip0_1099_688">
<rect width="24" height="24" fill="white" transform="translate(0 0.669922)"/>
</clipPath>
</defs>
</svg>
