<svg width="24" height="25" viewBox="0 0 24 25" fill="none" xmlns="http://www.w3.org/2000/svg">
<g clip-path="url(#clip0_1099_781)">
<path d="M16 10.6699C17.1046 10.6699 18 9.77449 18 8.66992C18 7.56535 17.1046 6.66992 16 6.66992C14.8954 6.66992 14 7.56535 14 8.66992C14 9.77449 14.8954 10.6699 16 10.6699Z" fill="#292D29"/>
<path d="M9 10.6699C10.1046 10.6699 11 9.77449 11 8.66992C11 7.56535 10.1046 6.66992 9 6.66992C7.89543 6.66992 7 7.56535 7 8.66992C7 9.77449 7.89543 10.6699 9 10.6699Z" fill="#292D29"/>
<path d="M8 17.6702C9.10456 17.6702 9.99999 16.7747 9.99999 15.6702C9.99999 14.5656 9.10456 13.6702 8 13.6702C6.89543 13.6702 6 14.5656 6 15.6702C6 16.7747 6.89543 17.6702 8 17.6702Z" fill="#292D29"/>
<path d="M24.0361 11.5981C23.7451 8.69601 22.4193 5.99555 20.3011 3.99046C18.1829 1.98538 15.4138 0.809622 12.5001 0.678149C10.906 0.619976 9.31635 0.880207 7.82401 1.44362C6.33168 2.00704 4.96666 2.86234 3.80876 3.9595C2.65086 5.05666 1.72332 6.37367 1.08039 7.83351C0.437459 9.29335 0.092033 10.8667 0.0643123 12.4616C0.0365915 14.0565 0.327132 15.641 0.918945 17.1223C1.51076 18.6036 2.39196 19.952 3.51104 21.0887C4.63011 22.2255 5.96459 23.1277 7.43644 23.7426C8.90829 24.3576 10.488 24.6729 12.0831 24.6701C12.4211 24.6701 12.7521 24.6481 13.0831 24.6211C13.4605 24.5899 13.812 24.417 14.0672 24.1373C14.3224 23.8576 14.4624 23.4918 14.4591 23.1131L14.4291 19.6881C14.4242 19.1207 14.5882 18.5645 14.9004 18.0906C15.2126 17.6167 15.6588 17.2464 16.1821 17.0268C16.7054 16.8073 17.2823 16.7485 17.8391 16.8579C18.396 16.9673 18.9077 17.24 19.3091 17.6411L19.4091 17.7411C19.691 18.0234 20.0392 18.2303 20.4219 18.3428C20.8045 18.4554 21.2094 18.4699 21.5991 18.3851C21.9826 18.3028 22.3392 18.1255 22.6364 17.8695C22.9336 17.6136 23.1618 17.2872 23.3001 16.9201C23.9476 15.2254 24.1994 13.4051 24.0361 11.5981ZM20.7871 14.9641C19.9122 14.3129 18.8729 13.9187 17.7862 13.8259C16.6995 13.7332 15.6084 13.9456 14.6358 14.4392C13.6632 14.9328 12.8477 15.6881 12.281 16.62C11.7143 17.5519 11.4189 18.6235 11.4281 19.7141L11.4451 21.6471C9.12035 21.4806 6.95083 20.4187 5.39317 18.6849C3.83552 16.9512 3.01122 14.6807 3.09375 12.3514C3.17629 10.0222 4.15923 7.81575 5.83569 6.19657C7.51215 4.57738 9.75139 3.6717 12.0821 3.67015C12.1821 3.67015 12.2941 3.67015 12.4001 3.67615C14.5841 3.77492 16.6597 4.65624 18.2475 6.15906C19.8354 7.66188 20.8294 9.68586 21.0481 11.8611C21.1428 12.9028 21.0545 13.953 20.7871 14.9641Z" fill="#292D29"/>
</g>
<defs>
<clipPath id="clip0_1099_781">
<rect width="24" height="24" fill="white" transform="translate(0 0.669922)"/>
</clipPath>
</defs>
</svg>
