<svg width="24" height="25" viewBox="0 0 24 25" fill="none" xmlns="http://www.w3.org/2000/svg">
<path d="M22.7521 8.67902C21.714 7.39253 20.1484 6.64619 18.4952 6.64966H16.4648L16.5545 6.12362C16.92 3.98069 15.4792 1.9472 13.3363 1.58167C13.1005 1.54145 12.8615 1.5228 12.6224 1.52598C11.1197 1.51816 9.74123 2.35853 9.05981 3.6978L7.55348 6.64966H5.47931C2.45456 6.65298 0.00328125 9.10422 0 12.129V17.1102C0.00328125 20.135 2.45456 22.5863 5.47931 22.5895H17.4422C20.0277 22.5802 22.2583 20.7725 22.803 18.2449L23.856 13.2637C24.2015 11.6472 23.7956 9.96114 22.7521 8.67902ZM2.9887 17.1102V12.129C2.9887 10.7535 4.10377 9.63841 5.47931 9.63841H6.97369V19.6008H5.47931C4.10381 19.6008 2.9887 18.4857 2.9887 17.1102ZM20.932 12.6451L19.878 17.6263C19.6308 18.775 18.6172 19.5967 17.4421 19.6008H9.96239V8.50366L11.7218 5.05567C11.9082 4.70664 12.2789 4.49612 12.6742 4.51473C13.1979 4.51506 13.6223 4.93998 13.622 5.46377C13.6219 5.51664 13.6175 5.56942 13.6087 5.62155L12.9242 9.63841H18.4952C19.8707 9.63827 20.9859 10.7532 20.986 12.1287C20.9861 12.3023 20.9679 12.4753 20.932 12.6451Z" fill="#292D29"/>
</svg>
