<svg width="96" height="97" viewBox="0 0 96 97" fill="none" xmlns="http://www.w3.org/2000/svg">
<g clip-path="url(#clip0_1032_170)">
<path d="M74 8.67236H22C16.1672 8.67872 10.5751 10.9986 6.45067 15.123C2.32624 19.2475 0.00635268 24.8396 0 30.6724L0 54.6724C0.00635268 60.5052 2.32624 66.0973 6.45067 70.2217C10.5751 74.3461 16.1672 76.666 22 76.6724H42V84.6724H32C30.4087 84.6724 28.8826 85.3045 27.7574 86.4297C26.6321 87.5549 26 89.0811 26 90.6724C26 92.2637 26.6321 93.7898 27.7574 94.915C28.8826 96.0402 30.4087 96.6724 32 96.6724H64C65.5913 96.6724 67.1174 96.0402 68.2426 94.915C69.3679 93.7898 70 92.2637 70 90.6724C70 89.0811 69.3679 87.5549 68.2426 86.4297C67.1174 85.3045 65.5913 84.6724 64 84.6724H54V76.6724H74C79.8328 76.666 85.4249 74.3461 89.5493 70.2217C93.6738 66.0973 95.9936 60.5052 96 54.6724V30.6724C95.9936 24.8396 93.6738 19.2475 89.5493 15.123C85.4249 10.9986 79.8328 8.67872 74 8.67236V8.67236ZM84 54.6724C84 57.3245 82.9464 59.8681 81.0711 61.7434C79.1957 63.6188 76.6522 64.6724 74 64.6724H22C19.3478 64.6724 16.8043 63.6188 14.9289 61.7434C13.0536 59.8681 12 57.3245 12 54.6724V30.6724C12 28.0202 13.0536 25.4767 14.9289 23.6013C16.8043 21.7259 19.3478 20.6724 22 20.6724H74C76.6522 20.6724 79.1957 21.7259 81.0711 23.6013C82.9464 25.4767 84 28.0202 84 30.6724V54.6724Z" fill="#292D29"/>
</g>
<defs>
<clipPath id="clip0_1032_170">
<rect width="96" height="96" fill="white" transform="translate(0 0.669922)"/>
</clipPath>
</defs>
</svg>
