<svg width="24" height="25" viewBox="0 0 24 25" fill="none" xmlns="http://www.w3.org/2000/svg">
<g clip-path="url(#clip0_1099_897)">
<path d="M8.50001 7.66993C9.185 7.69264 9.83299 7.98624 10.3017 8.48627C10.7704 8.9863 11.0216 9.6519 11 10.3369C11 11.6699 9.88101 11.6699 8.50001 11.6699C7.11901 11.6699 6.00001 11.6699 6.00001 10.3369C5.97843 9.6519 6.22958 8.9863 6.6983 8.48627C7.16702 7.98624 7.81501 7.69264 8.50001 7.66993ZM13 10.3369C13 11.6699 14.119 11.6699 15.5 11.6699C16.881 11.6699 18 11.6699 18 10.3369C18.0216 9.6519 17.7704 8.9863 17.3017 8.48627C16.833 7.98624 16.185 7.69264 15.5 7.66993C14.815 7.69264 14.167 7.98624 13.6983 8.48627C13.2296 8.9863 12.9784 9.6519 13 10.3369ZM24 12.6699C24 10.2966 23.2962 7.97647 21.9776 6.00308C20.6591 4.02969 18.7849 2.49162 16.5922 1.58337C14.3995 0.675121 11.9867 0.437481 9.65892 0.900504C7.33115 1.36353 5.19295 2.50642 3.51472 4.18465C1.83649 5.86288 0.693605 8.00107 0.230582 10.3288C-0.232441 12.6566 0.00519943 15.0694 0.913451 17.2621C1.8217 19.4548 3.35977 21.329 5.33316 22.6476C7.30655 23.9661 9.62663 24.6699 12 24.6699C15.1815 24.6665 18.2318 23.4011 20.4815 21.1514C22.7312 18.9017 23.9966 15.8515 24 12.6699ZM21 12.6699C21 14.45 20.4722 16.19 19.4832 17.6701C18.4943 19.1501 17.0887 20.3037 15.4442 20.9848C13.7996 21.666 11.99 21.8443 10.2442 21.497C8.49836 21.1497 6.89472 20.2926 5.63604 19.0339C4.37737 17.7752 3.5202 16.1716 3.17294 14.4257C2.82567 12.6799 3.0039 10.8703 3.68509 9.22578C4.36628 7.58124 5.51983 6.17563 6.99987 5.1867C8.47992 4.19777 10.22 3.66993 12 3.66993C14.3861 3.67284 16.6736 4.62198 18.3608 6.30918C20.0479 7.99638 20.9971 10.2839 21 12.6699ZM15.5 13.6699H8.50001C8.24289 13.6707 7.9905 13.739 7.76807 13.868C7.54565 13.997 7.361 14.1821 7.23261 14.4049C7.10422 14.6276 7.03659 14.8802 7.03648 15.1373C7.03637 15.3944 7.1038 15.6471 7.23201 15.8699C7.73526 16.6927 8.43365 17.3787 9.26533 17.8671C10.097 18.3555 11.0363 18.6312 12 18.6699C12.9635 18.6311 13.9026 18.3552 14.7341 17.8668C15.5656 17.3784 16.2638 16.6926 16.767 15.8699C16.8952 15.6471 16.9626 15.3946 16.9625 15.1376C16.9625 14.8805 16.8949 14.628 16.7667 14.4053C16.6384 14.1826 16.4539 13.9974 16.2316 13.8684C16.0093 13.7393 15.757 13.6709 15.5 13.6699Z" fill="#292D29"/>
</g>
<defs>
<clipPath id="clip0_1099_897">
<rect width="24" height="24" fill="white" transform="translate(0 0.669922)"/>
</clipPath>
</defs>
</svg>
