<svg width="40" height="41" viewBox="0 0 40 41" fill="none" xmlns="http://www.w3.org/2000/svg">
<rect y="0.669922" width="40" height="40" rx="4" fill="#009EEF"/>
<path d="M15.4093 12.7288C16.1432 12.7288 16.8214 12.7845 17.4439 12.9516C18.0648 13.0631 18.5758 13.2955 19.0296 13.5741C19.4833 13.8527 19.8208 14.2523 20.0501 14.7634C20.2729 15.2728 20.3939 15.8953 20.3939 16.5735C20.3939 17.3632 20.2252 18.0414 19.8272 18.5508C19.4849 19.0603 18.9261 19.5156 18.2399 19.8515C19.2047 20.1317 19.9386 20.6411 20.386 21.3193C20.8333 21.9975 21.1199 22.8429 21.1199 23.8077C21.1199 24.5973 20.9527 25.2755 20.6662 25.8423C20.3813 26.4135 19.9522 26.9003 19.4212 27.2544C18.9118 27.5967 18.2893 27.8753 17.6111 28.0441C16.9468 28.22 16.2635 28.3141 15.5765 28.3243L8 28.3354V12.7288H15.4093ZM14.9556 19.0618C15.5765 19.0618 16.0859 18.8947 16.4791 18.6081C16.8708 18.3216 17.0443 17.8169 17.0443 17.196C17.0443 16.8521 16.9886 16.5178 16.8771 16.2933C16.7555 16.0665 16.5807 15.8726 16.3677 15.7281C16.1371 15.6015 15.8901 15.5072 15.6338 15.4479C15.3536 15.3922 15.067 15.3922 14.7311 15.3922H11.4547V19.0698C11.4547 19.0618 14.9556 19.0618 14.9556 19.0618ZM15.1227 25.7372C15.465 25.7372 15.8009 25.6815 16.0875 25.6258C16.3677 25.5701 16.6543 25.457 16.8771 25.2819C17.1 25.1068 17.2752 24.9396 17.4439 24.661C17.5554 24.3808 17.6668 24.0385 17.6668 23.6405C17.6668 22.8509 17.4439 22.2841 16.9886 21.8861C16.5349 21.5438 15.9124 21.3767 15.1785 21.3767H11.4547V25.7293H15.1243L15.1227 25.7372ZM26.0409 25.6815C26.4951 26.1347 27.1733 26.3608 28.0755 26.3597C28.6964 26.3597 29.2631 26.1909 29.7184 25.9044C30.1706 25.5647 30.4518 25.2251 30.5622 24.8855H33.3323C32.877 26.2403 32.1988 27.2051 31.2977 27.8276C30.3966 28.3927 29.3188 28.7286 28.0182 28.7286C27.1863 28.7337 26.3612 28.5797 25.5871 28.2749C24.8893 28.0174 24.2671 27.5894 23.777 27.0299C23.2529 26.5095 22.8638 25.869 22.6435 25.1641C22.3649 24.4302 22.2455 23.6405 22.2455 22.7315C22.2455 21.8861 22.3569 21.0885 22.6435 20.3546C22.93 19.6222 23.3217 18.9982 23.8327 18.433C24.3422 17.9235 24.9646 17.4682 25.6429 17.188C26.3989 16.8863 27.2057 16.7322 28.0197 16.7343C28.9845 16.7343 29.8299 16.9015 30.5638 17.2995C31.2961 17.6975 31.8645 18.1464 32.3182 18.8246C32.772 19.4455 33.1079 20.1795 33.3387 20.9707C33.4502 21.7603 33.5059 22.5563 33.4502 23.459H25.2512C25.2512 24.3824 25.5855 25.2262 26.0409 25.6815ZM29.607 19.74C29.209 19.342 28.5849 19.1176 27.851 19.1176C27.3415 19.1176 26.9499 19.229 26.6076 19.3978C26.2653 19.5665 26.0409 19.7958 25.818 20.0187C25.6101 20.2373 25.4716 20.5126 25.42 20.8099C25.3627 21.0885 25.3085 21.3193 25.3085 21.5422H30.3966C30.2852 20.7048 30.0002 20.1381 29.607 19.74ZM24.6287 13.805H30.9618V15.3285H24.6287V13.805Z" fill="white"/>
</svg>
