<svg width="96" height="97" viewBox="0 0 96 97" fill="none" xmlns="http://www.w3.org/2000/svg">
<path d="M30.7998 21.1765C30.3017 20.1791 29.5357 19.3402 28.5875 18.7539C27.6393 18.1675 26.5466 17.8569 25.4318 17.8569C24.3169 17.8569 23.2242 18.1675 22.276 18.7539C21.3278 19.3402 20.5618 20.1791 20.0638 21.1765L0.639759 59.9765C0.180603 60.8911 -0.0369895 61.908 0.00766981 62.9304C0.0523292 63.9528 0.357756 64.9468 0.894911 65.8178C1.43207 66.6889 2.1831 67.4081 3.0766 67.9071C3.9701 68.406 4.97638 68.6681 5.99976 68.6685V68.6685C7.1153 68.6692 8.20895 68.3589 9.15789 67.7725C10.1068 67.186 10.8735 66.3466 11.3718 65.3485L13.7398 60.6685H37.1318L39.4718 65.3485C39.97 66.3466 40.7367 67.186 41.6856 67.7725C42.6346 68.3589 43.7282 68.6692 44.8438 68.6685V68.6685C45.8696 68.6716 46.8791 68.4116 47.7758 67.9133C48.6725 67.4151 49.4265 66.6952 49.9657 65.8226C50.505 64.9499 50.8115 63.9535 50.856 62.9287C50.9004 61.9038 50.6814 60.8846 50.2198 59.9685L30.7998 21.1765ZM19.7398 48.6685L25.4358 37.2765L31.1318 48.6685H19.7398Z" fill="#292D29"/>
<path d="M89.9999 26.6687C88.7794 26.6738 87.5894 27.051 86.5888 27.75C85.5883 28.4489 84.8247 29.4364 84.3999 30.5807C81.7745 29.3338 78.9064 28.681 75.9999 28.6687C70.6956 28.6687 65.6086 30.7758 61.8578 34.5266C58.1071 38.2773 56 43.3643 56 48.6687C56 53.973 58.1071 59.0601 61.8578 62.8108C65.6086 66.5615 70.6956 68.6686 75.9999 68.6686C78.9064 68.6563 81.7745 68.0035 84.3999 66.7566C84.9008 68.0594 85.8402 69.1468 87.0564 69.8317C88.2726 70.5165 89.6895 70.7559 91.0632 70.5086C92.4368 70.2613 93.6813 69.5429 94.5824 68.477C95.4835 67.411 95.9847 66.0643 95.9999 64.6686V32.6687C95.9999 31.0774 95.3677 29.5513 94.2425 28.4261C93.1173 27.3008 91.5912 26.6687 89.9999 26.6687ZM75.9999 56.6687C74.4177 56.6687 72.871 56.1995 71.5554 55.3204C70.2398 54.4414 69.2144 53.1919 68.6089 51.7301C68.0034 50.2683 67.845 48.6598 68.1537 47.108C68.4624 45.5561 69.2243 44.1306 70.3431 43.0118C71.4619 41.893 72.8874 41.1311 74.4392 40.8224C75.9911 40.5137 77.5996 40.6721 79.0614 41.2776C80.5232 41.8831 81.7726 42.9085 82.6517 44.2241C83.5307 45.5397 83.9999 47.0864 83.9999 48.6687C83.9999 50.7904 83.1571 52.8252 81.6568 54.3255C80.1565 55.8258 78.1217 56.6687 75.9999 56.6687Z" fill="#292D29"/>
</svg>
