<svg width="96" height="97" viewBox="0 0 96 97" fill="none" xmlns="http://www.w3.org/2000/svg">
<g clip-path="url(#clip0_1032_180)">
<path d="M74 96.6699H22C16.1672 96.6636 10.5751 94.3437 6.45067 90.2193C2.32624 86.0948 0.00635268 80.5027 0 74.6699L0 22.6699C0.00635268 16.8371 2.32624 11.245 6.45067 7.12059C10.5751 2.99617 16.1672 0.676275 22 0.669922L74 0.669922C79.8328 0.676275 85.4249 2.99617 89.5493 7.12059C93.6738 11.245 95.9936 16.8371 96 22.6699V74.6699C95.9936 80.5027 93.6738 86.0948 89.5493 90.2193C85.4249 94.3437 79.8328 96.6636 74 96.6699ZM22 12.6699C19.3478 12.6699 16.8043 13.7235 14.9289 15.5989C13.0536 17.4742 12 20.0178 12 22.6699V74.6699C12 77.3221 13.0536 79.8656 14.9289 81.741C16.8043 83.6164 19.3478 84.6699 22 84.6699H74C76.6522 84.6699 79.1957 83.6164 81.0711 81.741C82.9464 79.8656 84 77.3221 84 74.6699V22.6699C84 20.0178 82.9464 17.4742 81.0711 15.5989C79.1957 13.7235 76.6522 12.6699 74 12.6699H22ZM31.968 38.0259V59.3139C31.968 60.2505 32.214 61.1707 32.6814 61.9824C33.1487 62.7941 33.8211 63.4688 34.6311 63.939C35.4411 64.4092 36.3604 64.6584 37.297 64.6618C38.2336 64.6651 39.1547 64.4224 39.968 63.9579L61.276 53.3139C62.0949 52.8462 62.7756 52.1704 63.249 51.3548C63.7224 50.5392 63.9718 49.6129 63.9718 48.6699C63.9718 47.7269 63.7224 46.8006 63.249 45.9851C62.7756 45.1695 62.0949 44.4936 61.276 44.0259L39.968 33.3819C39.1547 32.9175 38.2336 32.6748 37.297 32.6781C36.3604 32.6814 35.4411 32.9307 34.6311 33.4009C33.8211 33.8711 33.1487 34.5458 32.6814 35.3575C32.214 36.1691 31.968 37.0893 31.968 38.0259V38.0259Z" fill="#292D29"/>
</g>
<defs>
<clipPath id="clip0_1032_180">
<rect width="96" height="96" fill="white" transform="translate(0 0.669922)"/>
</clipPath>
</defs>
</svg>
