<svg width="24" height="25" viewBox="0 0 24 25" fill="none" xmlns="http://www.w3.org/2000/svg">
<g clip-path="url(#clip0_1099_691)">
<path d="M12.7496 7.6709C11.446 7.73563 10.4401 8.84212 10.4996 10.1459C10.559 8.84212 9.55312 7.73563 8.24957 7.6709C6.94603 7.73563 5.94014 8.84212 5.99957 10.1459C5.99957 12.0929 8.53757 14.4109 9.79959 15.4259C10.2082 15.755 10.7909 15.755 11.1996 15.4259C12.4636 14.4109 14.9996 12.0929 14.9996 10.1459C15.059 8.84212 14.0531 7.73563 12.7496 7.6709Z" fill="#292D29"/>
<path d="M23.5624 22.1084L18.9196 17.4647C22.3935 12.8229 21.4467 6.24388 16.805 2.76997C12.1632 -0.703934 5.58416 0.242894 2.1103 4.88469C-1.36356 9.52649 -0.416824 16.1055 4.22497 19.5793C7.95397 22.3701 13.076 22.3701 16.805 19.5793L21.4487 24.2241C22.0324 24.8078 22.9787 24.8078 23.5624 24.2241C24.1461 23.6404 24.1461 22.6941 23.5624 22.1104V22.1084ZM3.08188 11.2123C3.08188 7.08632 6.4266 3.7416 10.5525 3.7416C14.6785 3.7416 18.0232 7.08632 18.0232 11.2123C18.0232 15.3382 14.6785 18.6829 10.5525 18.6829C6.42843 18.6785 3.08629 15.3363 3.08188 11.2123Z" fill="#292D29"/>
</g>
<defs>
<clipPath id="clip0_1099_691">
<rect width="24" height="24" fill="white" transform="translate(0 0.669922)"/>
</clipPath>
</defs>
</svg>
