<svg width="148" height="148" viewBox="0 0 148 148" fill="none" xmlns="http://www.w3.org/2000/svg">
<g clip-path="url(#clip0_1121_899)">
<path d="M98.6663 61.6666C105.478 61.6666 111 56.1448 111 49.3333C111 42.5218 105.478 37 98.6663 37C91.8548 37 86.333 42.5218 86.333 49.3333C86.333 56.1448 91.8548 61.6666 98.6663 61.6666Z" fill="#009EEF"/>
<path d="M55.5003 61.6666C62.3118 61.6666 67.8336 56.1448 67.8336 49.3333C67.8336 42.5218 62.3118 37 55.5003 37C48.6888 37 43.167 42.5218 43.167 49.3333C43.167 56.1448 48.6888 61.6666 55.5003 61.6666Z" fill="#009EEF"/>
<path d="M49.3333 104.835C56.1448 104.835 61.6666 99.3135 61.6666 92.502C61.6666 85.6905 56.1448 80.1687 49.3333 80.1687C42.5218 80.1687 37 85.6905 37 92.502C37 99.3135 42.5218 104.835 49.3333 104.835Z" fill="#009EEF"/>
<path d="M148.222 67.3914C146.428 49.4949 138.252 32.842 125.19 20.4774C112.127 8.11266 95.0514 0.862173 77.0834 0.051424C67.2532 -0.307305 57.4502 1.29745 48.2474 4.77186C39.0447 8.24627 30.6271 13.5206 23.4867 20.2864C16.3463 27.0522 10.6265 35.1738 6.66176 44.1761C2.69701 53.1785 0.566886 62.881 0.395941 72.7162C0.224997 82.5515 2.01666 92.3221 5.66617 101.457C9.31569 110.591 14.7498 118.907 21.6507 125.917C28.5517 132.927 36.781 138.49 45.8574 142.282C54.9338 146.075 64.6752 148.019 74.5119 148.002C76.5963 148.002 78.6374 147.866 80.6786 147.7C83.0055 147.507 85.1734 146.441 86.7472 144.716C88.3211 142.992 89.1844 140.735 89.1639 138.401L88.9789 117.28C88.9485 113.78 89.9602 110.351 91.8853 107.428C93.8104 104.506 96.5618 102.222 99.789 100.868C103.016 99.5146 106.573 99.1519 110.007 99.8266C113.441 100.501 116.597 102.183 119.072 104.657L119.689 105.273C121.427 107.014 123.574 108.29 125.934 108.984C128.294 109.678 130.79 109.767 133.194 109.245C135.559 108.737 137.758 107.643 139.591 106.065C141.423 104.487 142.83 102.474 143.683 100.21C147.676 89.7593 149.229 78.534 148.222 67.3914V67.3914ZM128.187 88.1484C122.791 84.1321 116.382 81.7013 109.681 81.1293C102.979 80.5574 96.2511 81.8672 90.2534 84.9112C84.2558 87.9552 79.2266 92.6127 75.732 98.3595C72.2374 104.106 70.416 110.714 70.4728 117.44L70.5776 129.36C56.2415 128.333 42.8628 121.785 33.2573 111.093C23.6517 100.402 18.5685 86.4005 19.0775 72.0367C19.5865 57.6729 25.6479 44.0667 35.9861 34.0817C46.3243 24.0967 60.1329 18.5117 74.5058 18.5021C75.1224 18.5021 75.8131 18.5021 76.4668 18.5391C89.9349 19.1482 102.734 24.583 112.526 33.8504C122.317 43.1178 128.448 55.599 129.796 69.0133C130.38 75.4367 129.835 81.9128 128.187 88.1484V88.1484Z" fill="#009EEF"/>
</g>
<defs>
<clipPath id="clip0_1121_899">
<rect width="148" height="148" fill="white"/>
</clipPath>
</defs>
</svg>
