<svg width="24" height="25" viewBox="0 0 24 25" fill="none" xmlns="http://www.w3.org/2000/svg">
<g clip-path="url(#clip0_1099_712)">
<path d="M21.4993 2.67079H13.4993C12.8363 2.67079 12.2004 2.93418 11.7316 3.40303C11.2627 3.87187 10.9993 4.50775 10.9993 5.17079V5.47079L9.73435 3.27679C9.57456 2.98156 9.35775 2.72098 9.09648 2.51018C8.83521 2.29938 8.5347 2.14256 8.21235 2.04879C7.67621 1.89792 7.10503 1.9304 6.58945 2.14109C6.07386 2.35178 5.6434 2.72861 5.36636 3.21179L0.374361 11.8578C0.199237 12.1439 0.0825556 12.4618 0.0310625 12.7932C-0.0204306 13.1247 -0.00571404 13.4631 0.0743615 13.7888C0.211785 14.3274 0.52483 14.8049 0.964007 15.1458C1.40319 15.4866 1.94344 15.6714 2.49936 15.6708H5.19936C4.89742 16.7238 4.84418 17.8326 5.04383 18.9097C5.24348 19.9869 5.69056 21.0029 6.34984 21.8778C7.00913 22.7527 7.86259 23.4625 8.84298 23.9513C9.82336 24.4401 10.9039 24.6945 11.9993 24.6945C13.0948 24.6945 14.1753 24.4401 15.1557 23.9513C16.1361 23.4625 16.9896 22.7527 17.6488 21.8778C18.3081 21.0029 18.7552 19.9869 18.9549 18.9097C19.1545 17.8326 19.1013 16.7238 18.7993 15.6708H21.4993C21.8276 15.6708 22.1527 15.6061 22.456 15.4805C22.7594 15.3548 23.035 15.1707 23.2671 14.9385C23.4992 14.7064 23.6834 14.4308 23.809 14.1275C23.9347 13.8242 23.9993 13.4991 23.9993 13.1708V5.17079C23.9993 4.84249 23.9347 4.5174 23.809 4.21408C23.6834 3.91077 23.4992 3.63517 23.2671 3.40303C23.035 3.17088 22.7594 2.98673 22.456 2.86109C22.1527 2.73546 21.8276 2.67079 21.4993 2.67079ZM3.36936 12.6708L7.53135 5.46179L10.5413 10.6708C9.16443 10.962 7.90613 11.6585 6.92835 12.6708H3.36936ZM11.9993 21.6708C11.1936 21.6708 10.4059 21.4318 9.73596 20.9842C9.06599 20.5365 8.54382 19.9002 8.23547 19.1558C7.92712 18.4114 7.84644 17.5923 8.00363 16.802C8.16083 16.0117 8.54884 15.2858 9.1186 14.716C9.68836 14.1463 10.4143 13.7583 11.2046 13.6011C11.9948 13.4439 12.814 13.5245 13.5584 13.8329C14.3028 14.1412 14.9391 14.6634 15.3868 15.3334C15.8344 16.0033 16.0733 16.791 16.0733 17.5968C16.072 18.6769 15.6424 19.7123 14.8786 20.4761C14.1149 21.2398 13.0794 21.6694 11.9993 21.6708ZM20.9993 12.6708H17.0703C16.2133 11.8097 15.1591 11.1706 13.9993 10.8088V5.67079H20.9993V12.6708Z" fill="#292D29"/>
</g>
<defs>
<clipPath id="clip0_1099_712">
<rect width="24" height="24" fill="white" transform="translate(0 0.669922)"/>
</clipPath>
</defs>
</svg>
