<svg width="40" height="41" viewBox="0 0 40 41" fill="none" xmlns="http://www.w3.org/2000/svg">
<rect y="0.669922" width="40" height="40" rx="4" fill="#009EEF"/>
<path d="M26.1009 15.9404C26.8583 15.9404 27.4724 15.3264 27.4724 14.5689C27.4724 13.8115 26.8583 13.1975 26.1009 13.1975C25.3435 13.1975 24.7295 13.8115 24.7295 14.5689C24.7295 15.3264 25.3435 15.9404 26.1009 15.9404Z" fill="white"/>
<path d="M19.9994 14.8015C18.8387 14.8015 17.7041 15.1457 16.739 15.7905C15.7739 16.4354 15.0218 17.3519 14.5776 18.4243C14.1334 19.4966 14.0172 20.6766 14.2436 21.815C14.4701 22.9534 15.029 23.9991 15.8497 24.8198C16.6705 25.6405 17.7161 26.1995 18.8545 26.4259C19.9929 26.6523 21.1729 26.5361 22.2452 26.0919C23.3176 25.6478 24.2341 24.8956 24.879 23.9305C25.5238 22.9654 25.868 21.8308 25.868 20.6701C25.868 19.1136 25.2497 17.6209 24.1491 16.5204C23.0486 15.4198 21.5559 14.8015 19.9994 14.8015ZM19.9994 24.4796C19.246 24.4796 18.5094 24.2562 17.883 23.8376C17.2565 23.419 16.7682 22.824 16.4799 22.1279C16.1916 21.4318 16.1161 20.6659 16.2631 19.9269C16.4101 19.1879 16.7729 18.5091 17.3057 17.9763C17.8385 17.4436 18.5173 17.0808 19.2562 16.9338C19.9952 16.7868 20.7612 16.8622 21.4573 17.1505C22.1534 17.4389 22.7483 17.9272 23.1669 18.5536C23.5855 19.1801 23.809 19.9166 23.809 20.6701C23.809 21.6804 23.4076 22.6494 22.6932 23.3638C21.9787 24.0782 21.0098 24.4796 19.9994 24.4796Z" fill="white"/>
<path d="M19.9999 11.3005C23.0513 11.3005 23.4132 11.3119 24.618 11.3672C25.3426 11.3758 26.0603 11.5088 26.7399 11.7605C27.2329 11.9507 27.6806 12.242 28.0543 12.6156C28.4279 12.9893 28.7192 13.437 28.9094 13.93C29.1611 14.6096 29.2941 15.3273 29.3027 16.0519C29.358 17.2567 29.3694 17.6186 29.3694 20.671C29.3694 23.7234 29.358 24.0834 29.3027 25.2881C29.2941 26.0127 29.1611 26.7305 28.9094 27.41C28.7192 27.903 28.4279 28.3508 28.0543 28.7244C27.6806 29.0981 27.2329 29.3894 26.7399 29.5795C26.0603 29.8312 25.3426 29.9643 24.618 29.9729C23.4132 30.0281 23.0513 30.0395 19.9999 30.0395C16.9484 30.0395 16.5865 30.0281 15.3818 29.9729C14.6572 29.9643 13.9394 29.8312 13.2599 29.5795C12.7668 29.3894 12.3191 29.0981 11.9455 28.7244C11.5718 28.3508 11.2805 27.903 11.0903 27.41C10.8387 26.7305 10.7056 26.0127 10.697 25.2881C10.6418 24.0834 10.6303 23.7215 10.6303 20.67C10.6303 17.6186 10.6418 17.2567 10.697 16.0519C10.7056 15.3273 10.8387 14.6096 11.0903 13.93C11.2805 13.437 11.5718 12.9893 11.9455 12.6156C12.3191 12.242 12.7668 11.9507 13.2599 11.7605C13.9394 11.5088 14.6572 11.3758 15.3818 11.3672C16.5865 11.3119 16.9484 11.3005 19.9999 11.3005ZM19.9999 9.24146C16.8961 9.24146 16.5065 9.25479 15.2875 9.31003C14.3396 9.32917 13.4019 9.50885 12.5141 9.84146C11.7548 10.1351 11.0652 10.5841 10.4896 11.1598C9.91393 11.7354 9.46491 12.425 9.17129 13.1843C8.83858 14.0724 8.65889 15.0104 8.63986 15.9586C8.58462 17.1776 8.57129 17.5653 8.57129 20.67C8.57129 23.7748 8.58462 24.1634 8.63986 25.3824C8.659 26.3302 8.83869 27.268 9.17129 28.1557C9.46491 28.9151 9.91393 29.6046 10.4896 30.1803C11.0652 30.756 11.7548 31.205 12.5141 31.4986C13.4022 31.8313 14.3403 32.011 15.2884 32.03C16.5075 32.0853 16.8961 32.0986 19.9999 32.0986C23.1037 32.0986 23.4932 32.0853 24.7122 32.03C25.6604 32.011 26.5985 31.8313 27.4865 31.4986C28.2458 31.205 28.9354 30.756 29.5111 30.1803C30.0867 29.6046 30.5358 28.9151 30.8294 28.1557C31.1618 27.2676 31.3411 26.3296 31.3599 25.3815C31.4151 24.1624 31.4284 23.7748 31.4284 20.67C31.4284 17.5653 31.4151 17.1767 31.3599 15.9576C31.3407 15.0098 31.161 14.0721 30.8284 13.1843C30.5348 12.425 30.0858 11.7354 29.5101 11.1598C28.9345 10.5841 28.2449 10.1351 27.4856 9.84146C26.5974 9.50907 25.6594 9.32971 24.7113 9.31098C23.4922 9.25384 23.1046 9.24146 19.9999 9.24146Z" fill="white"/>
</svg>
