<svg width="40" height="41" viewBox="0 0 40 41" fill="none" xmlns="http://www.w3.org/2000/svg">
<rect y="0.669922" width="40" height="40" rx="4" fill="#009EEF"/>
<path d="M15.1806 14.0029C15.1804 14.5081 14.9794 14.9924 14.6221 15.3495C14.2647 15.7065 13.7801 15.9069 13.2749 15.9067C12.7697 15.9064 12.2853 15.7055 11.9283 15.3481C11.5713 14.9907 11.3708 14.5062 11.3711 14.001C11.3713 13.4958 11.5723 13.0114 11.9297 12.6544C12.287 12.2974 12.7716 12.0969 13.2768 12.0972C13.782 12.0974 14.2664 12.2983 14.6234 12.6557C14.9804 13.0131 15.1809 13.4977 15.1806 14.0029ZM15.2378 17.3172H11.4282V29.241H15.2378V17.3172ZM21.2568 17.3172H17.4663V29.241H21.2187V22.9838C21.2187 19.4981 25.7616 19.1743 25.7616 22.9838V29.241H29.5235V21.6886C29.5235 15.8124 22.7997 16.0315 21.2187 18.9172L21.2568 17.3172Z" fill="white"/>
</svg>
