<svg width="96" height="97" viewBox="0 0 96 97" fill="none" xmlns="http://www.w3.org/2000/svg">
<g clip-path="url(#clip0_1032_175)">
<path d="M63.9995 40.6699C68.4178 40.6699 71.9995 37.0882 71.9995 32.6699C71.9995 28.2516 68.4178 24.6699 63.9995 24.6699C59.5812 24.6699 55.9995 28.2516 55.9995 32.6699C55.9995 37.0882 59.5812 40.6699 63.9995 40.6699Z" fill="#292D29"/>
<path d="M36.0005 40.6699C40.4187 40.6699 44.0005 37.0882 44.0005 32.6699C44.0005 28.2516 40.4187 24.6699 36.0005 24.6699C31.5822 24.6699 28.0005 28.2516 28.0005 32.6699C28.0005 37.0882 31.5822 40.6699 36.0005 40.6699Z" fill="#292D29"/>
<path d="M32 68.6711C36.4183 68.6711 40 65.0894 40 60.6711C40 56.2529 36.4183 52.6711 32 52.6711C27.5817 52.6711 24 56.2529 24 60.6711C24 65.0894 27.5817 68.6711 32 68.6711Z" fill="#292D29"/>
<path d="M96.144 44.3833C94.9799 32.7748 89.6768 21.9729 81.204 13.9526C72.7312 5.93223 61.6549 1.22921 50 0.703318C43.6236 0.470628 37.2649 1.51155 31.2956 3.76522C25.3262 6.01889 19.8661 9.44007 15.2345 13.8287C10.6029 18.2174 6.8928 23.4854 4.32107 29.3248C1.74935 35.1641 0.367644 41.4576 0.256761 47.8372C0.145878 54.2169 1.30804 60.5546 3.67529 66.4798C6.04254 72.405 9.56737 77.7988 14.0437 82.3457C18.5199 86.8927 23.8579 90.5015 29.7453 92.9613C35.6327 95.421 41.9514 96.6823 48.332 96.6713C49.684 96.6713 51.008 96.5833 52.332 96.4753C53.8414 96.3502 55.2475 95.6588 56.2684 94.5401C57.2893 93.4213 57.8492 91.9578 57.836 90.4433L57.716 76.7433C57.6962 74.4733 58.3525 72.2489 59.6012 70.3531C60.8499 68.4574 62.6346 66.9761 64.7279 66.098C66.8213 65.2199 69.1286 64.9847 71.3561 65.4223C73.5836 65.8599 75.6304 66.9506 77.236 68.5553L77.636 68.9553C78.7633 70.0844 80.1563 70.912 81.687 71.3621C83.2177 71.8122 84.837 71.8704 86.396 71.5313C87.9298 71.2018 89.3564 70.4926 90.5451 69.4688C91.7339 68.445 92.6467 67.1393 93.2 65.6713C95.7901 58.8922 96.797 51.6109 96.144 44.3833V44.3833ZM83.148 57.8473C79.6484 55.2422 75.4913 53.6654 71.1443 53.2944C66.7973 52.9234 62.4331 53.773 58.5427 55.7475C54.6523 57.722 51.3902 60.7431 49.1234 64.4707C46.8566 68.1984 45.6752 72.4847 45.712 76.8473L45.78 84.5793C36.4809 83.9133 27.8028 79.6657 21.5722 72.7305C15.3416 65.7954 12.0444 56.7136 12.3745 47.3965C12.7047 38.0794 16.6364 29.2537 23.3423 22.777C30.0481 16.3002 39.0051 12.6775 48.328 12.6713C48.728 12.6713 49.176 12.6713 49.6 12.6953C58.3361 13.0904 66.6383 16.6157 72.9896 22.627C79.341 28.6383 83.3173 36.7342 84.192 45.4353C84.5708 49.6019 84.2175 53.8026 83.148 57.8473V57.8473Z" fill="#292D29"/>
</g>
<defs>
<clipPath id="clip0_1032_175">
<rect width="96" height="96" fill="white" transform="translate(0 0.669922)"/>
</clipPath>
</defs>
</svg>
